<?xml version="1.0" encoding="utf-8"?>
<svg version="1.0" width="256.000000pt" height="256.000000pt" viewBox="0 0 256.000000 256.000000" preserveAspectRatio="xMidYMid meet" xmlns="http://www.w3.org/2000/svg">
  <g transform="translate(0.000000,256.000000) scale(0.100000,-0.100000)" fill="#D10D10" stroke="none">
    <rect x="850" y="-2050" width="900" height="1450" style="fill: rgb(255, 255, 255);" transform="matrix(1, 0, 0, -1, 0, 0)"/>
    <path d="M920 2554 c-151 -23 -240 -49 -345 -102 -282 -141 -472 -382 -552 -702 -14 -57 -17 -171 -20 -908 l-4 -843 843 4 c904 4 876 2 1028 55 288 100 532 344 632 632 53 152 51 124 55 1028 l4 842 -808 -1 c-444 -1 -819 -3 -833 -5z m176 -574 c287 -74 521 -331 580 -637 8 -41 14 -95 14 -119 l0 -44 -115 0 -115 0 0 43 c-1 115 -72 283 -160 375 -94 99 -221 163 -356 178 l-54 7 0 115 0 114 68 -7 c37 -4 99 -15 138 -25z m24 -830 l0 -260 275 0 275 0 0 -110 0 -110 -390 0 -390 0 0 370 0 370 115 0 115 0 0 -260z"/>
  </g>
</svg>